<svg width="36" height="36" viewBox="0 0 36 36" fill="none" xmlns="http://www.w3.org/2000/svg">
<rect width="36" height="36" rx="4" fill="#2DB67C"/>
<path d="M24.4731 22.0088C23.8442 22.0088 23.3247 21.503 23.3247 20.8741C23.3247 20.2453 23.8442 19.7531 24.4731 19.7531C25.1019 19.7531 25.6214 20.2453 25.6214 20.8741C25.6214 21.503 25.1019 22.0088 24.4731 22.0088ZM11.8959 22.0088C11.2671 22.0088 10.7476 21.503 10.7476 20.8741C10.7476 20.2453 11.2671 19.7531 11.8959 19.7531C12.5248 19.7531 13.0306 20.2453 13.0306 20.8741C13.0306 21.503 12.5248 22.0088 11.8959 22.0088ZM24.8832 15.1597L27.1662 11.2225C27.2893 10.9901 27.2072 10.703 26.9885 10.58C26.7561 10.4433 26.469 10.5253 26.3733 10.7577L24.0356 14.7359C22.2037 13.902 20.2214 13.4646 18.1708 13.4782C16.0792 13.4782 14.0696 13.9294 12.3334 14.7223L10.023 10.7441C9.89997 10.5117 9.61289 10.4296 9.38048 10.5663C9.14808 10.6894 9.07972 10.9765 9.20276 11.2089L11.4721 15.1461C7.57593 17.2787 4.89645 21.2296 4.5 25.905H31.8416C31.4589 21.2432 28.793 17.2924 24.8832 15.1597Z" fill="white"/>
</svg>
