<svg width="60" height="60" viewBox="0 0 60 60" fill="none" xmlns="http://www.w3.org/2000/svg">
<path d="M52 0H8C3.58172 0 0 3.58172 0 8V52C0 56.4183 3.58172 60 8 60H52C56.4183 60 60 56.4183 60 52V8C60 3.58172 56.4183 0 52 0Z" fill="#FAC124"/>
<path d="M35 40H25V22.5H35V40ZM35.8375 20H33.75V17.5H26.25V20H24.1625C23.25 20 22.5 20.75 22.5 21.6625V40.8375C22.5 41.75 23.25 42.5 24.1625 42.5H35.8375C36.7625 42.5 37.5 41.7625 37.5 40.8375V21.6625C37.5 20.75 36.75 20 35.8375 20ZM33.75 35H26.25V38.75H33.75V35ZM33.75 29.375H26.25V33.125H33.75V29.375Z" fill="white"/>
</svg>
