<svg width="60" height="60" viewBox="0 0 60 60" fill="none" xmlns="http://www.w3.org/2000/svg">
<rect width="60" height="60" rx="8" fill="#27AE60"/>
<mask id="mask0" mask-type="alpha" maskUnits="userSpaceOnUse" x="15" y="15" width="30" height="30">
<rect x="15" y="15" width="30" height="30" fill="#C4C4C4"/>
</mask>
<g mask="url(#mask0)">
<path d="M21.2891 30.6641C23.7109 28.2812 26.6211 27.0898 30.0195 27.0898C32.2715 27.0898 34.2971 27.6012 36.0964 28.6238L33.3594 31.3672C32.1484 30.8594 31.0352 30.6055 30.0195 30.6055C29.0039 30.6055 27.8711 30.8594 26.6211 31.3672C25.4102 31.875 24.4531 32.4805 23.75 33.1836L21.2891 30.6641ZM26.2695 35.7031C27.3242 34.6484 28.5742 34.1211 30.0195 34.1211C31.4648 34.1211 32.7148 34.6484 33.7695 35.7031L30.0195 39.4531L26.2695 35.7031ZM16.25 25.6836C20.0781 21.8945 24.668 20 30.0195 20C35.4102 20 40 21.8945 43.7891 25.6836L41.2695 28.2031C38.1445 25.1172 34.3945 23.5742 30.0195 23.5742C25.6445 23.5742 21.8945 25.1172 18.7695 28.2031L16.25 25.6836Z" fill="white"/>
<path d="M36.8683 30.8724H36.1183V31.6224V33.75H34.7254H33.389C33.5262 32.8728 33.9142 32.1212 34.5556 31.4727C35.3983 30.6206 36.3899 30.2057 37.5714 30.2057C38.7529 30.2057 39.7446 30.6206 40.5873 31.4727L40.5872 31.4727L40.5934 31.4788C41.4308 32.3063 41.8438 33.2981 41.8438 34.5C41.8438 35.7008 41.4313 36.7064 40.5903 37.5581C40.5203 37.6271 40.4493 37.6932 40.3772 37.7564L40.5558 37.4628L41.0916 36.5826L41.482 35.941L40.8399 35.5515L38.6897 34.247V31.6224V30.8724H37.9397H36.8683ZM35.2587 35.0274L36.1183 34.1582V35.2109V35.6316L36.4772 35.8509L39.5241 37.7129L40.0376 38.0267C39.3222 38.541 38.507 38.7943 37.5714 38.7943C36.4159 38.7943 35.4344 38.382 34.5891 37.5273L34.047 36.9792L33.514 37.5361L32.5095 38.5856L32.005 39.1127L32.5181 39.6316C33.1145 40.2346 33.8928 40.7339 34.8248 41.1446L34.8353 41.1493L34.846 41.1536C35.8021 41.5403 36.7138 41.75 37.5714 41.75C39.5359 41.75 41.2333 41.0374 42.6225 39.6339C44.036 38.2285 44.75 36.5027 44.75 34.5C44.75 32.4973 44.036 30.7714 42.6224 29.3661C41.2333 27.9626 39.5359 27.25 37.5714 27.25C35.6062 27.25 33.8994 27.9629 32.4893 29.3637L32.4893 29.3637L32.4846 29.3684C31.2704 30.5962 30.5823 32.0665 30.4269 33.75H29H27.2034L28.4667 35.0274L31.1937 37.7846L31.2198 37.8243L31.7289 38.5964L32.3792 37.9389L35.2587 35.0274Z" fill="white" stroke="#27AE60" stroke-width="1.5"/>
</g>
</svg>
