<svg width="512" height="512" viewBox="0 0 512 512" fill="none" xmlns="http://www.w3.org/2000/svg">
<path d="M256.1 495.5C132.6 495.5 32.1 395 32.1 271.5C32.1 207.6 59.5 146.6 107.3 104.1C120.5 92.3 140.7 93.5 152.5 106.7C164.3 119.9 163.1 140.1 149.9 151.9C115.8 182.3 96.2 225.8 96.2 271.5C96.2 359.8 168 431.5 256.2 431.5C344.4 431.5 416.2 359.7 416.2 271.5C416.2 225.9 396.6 182.3 362.6 151.9C349.3 140.1 348.2 120 359.9 106.7C371.7 93.5 391.9 92.3 405.1 104.1C452.9 146.6 480.2 207.6 480.2 271.5C480.1 395 379.6 495.5 256.1 495.5ZM288.1 207.5V47.5C288.1 29.8 273.8 15.5 256.1 15.5C238.4 15.5 224.1 29.8 224.1 47.5V207.5C224.1 225.2 238.4 239.5 256.1 239.5C273.8 239.5 288.1 225.2 288.1 207.5Z" fill="#028CC9" stroke="white" stroke-miterlimit="10"/>
</svg>
